<?xml version="1.0" encoding="utf-8"?>
<!-- Generator: Adobe Illustrator 16.0.0, SVG Export Plug-In . SVG Version: 6.00 Build 0)  -->
<!DOCTYPE svg PUBLIC "-//W3C//DTD SVG 1.1//EN" "http://www.w3.org/Graphics/SVG/1.1/DTD/svg11.dtd">
<svg version="1.1" id="Layer_1" xmlns="http://www.w3.org/2000/svg" xmlns:xlink="http://www.w3.org/1999/xlink" x="0px" y="0px"
	 width="43.273px" height="43.273px" viewBox="45.605 0 43.273 43.273" enable-background="new 45.605 0 43.273 43.273"
	 xml:space="preserve">
<g>
	<path d="M67.307,41.526c-5.381-0.01-10.412-2.098-14.168-5.877c-3.753-3.776-5.808-8.813-5.786-14.186
		C47.396,10.567,56.354,1.702,67.32,1.702c5.326,0.012,10.301,2.099,14.057,5.875c3.755,3.775,5.814,8.762,5.8,14.041
		c-0.032,10.979-8.927,19.909-19.829,19.909H67.307z M72.381,28.009c1.348,0,2.596,0.334,3.801,1.022
		c0.125-0.958,0.785-1.601,1.498-1.918c0.011-0.011,0.277-0.258,0.277-0.258c0.197-0.181,0.39-0.37,0.582-0.558
		c0.291-0.286,0.593-0.582,0.924-0.87c0.731-0.638,1.012-1.26,0.969-2.147c-0.083-1.698-1.732-3.241-3.163-3.564
		c-0.151-0.034-0.346-0.058-0.551-0.082c-0.313-0.038-0.67-0.081-1.05-0.18c-0.34-0.088-0.723-0.131-1.168-0.131
		c-0.521,0-1.07,0.057-1.651,0.117c-0.394,0.041-0.785,0.082-1.176,0.107c-0.675,0.043-1.451,0.35-2.273,0.675
		c-0.169,0.067-0.337,0.133-0.505,0.198c-0.768,0.294-1.373,0.608-1.854,0.96c-1.123,0.822-1.93,1.583-2.213,2.627
		c-0.186,0.683-0.078,1.196,0.373,1.771c0.627,0.798,1.581,1.226,2.686,1.72l0.462,0.208c0.548,0.25,1.212,0.362,2.151,0.362
		c0.413,0,0.827-0.02,1.238-0.038l0.301-0.013C72.154,28.012,72.27,28.009,72.381,28.009z M63.912,12.545
		c-1.079,0-2.182,0.207-3.373,0.632c-0.333,0.12-0.653,0.183-0.91,0.233c-0.145,0.028-0.361,0.071-0.428,0.101
		c-0.734,0.39-1.508,0.872-2.426,1.515c-0.641,0.448-1.078,0.985-1.336,1.642c-0.275,0.699-0.345,1.45-0.205,2.231
		c0.045,0.248,0.199,0.54,1.02,0.997c1.218,0.677,1.738,1.479,1.904,2.229c0.65-0.397,1.289-0.5,1.777-0.5
		c0.271,0,0.553,0.031,0.838,0.093c0.908-2.445,2.824-4.269,5.825-5.555c0.881-0.377,1.772-0.651,2.636-0.917
		c0.183-0.057,0.365-0.112,0.547-0.17c-0.014-0.022-0.027-0.045-0.042-0.066c-0.644-0.929-1.636-1.538-3.429-2.098
		C65.531,12.668,64.725,12.545,63.912,12.545z"/>
	<path fill="#ACACAC" d="M67.32,3.405c0.015,0,0.029,0,0.044,0c9.973,0.023,18.139,8.234,18.11,18.208
		c-0.029,10.052-8.154,18.211-18.127,18.211c-0.013,0-0.025,0-0.037,0c-10.178-0.021-18.297-8.183-18.256-18.353
		C49.096,11.491,57.275,3.405,67.32,3.405 M55.959,26.903c0.117-0.148,0.228-0.303,0.354-0.443c0.731-0.805,1.486-1.591,2.196-2.416
		c0.417-0.483,0.881-0.717,1.426-0.717c0.205,0,0.422,0.033,0.652,0.098c0.315,0.09,0.657,0.114,0.992,0.114
		c0.053,0,0.105-0.001,0.158-0.002c0.127-0.003,0.328-0.191,0.36-0.326c0.664-2.831,2.675-4.416,5.17-5.484
		c1.243-0.532,2.573-0.858,3.855-1.3c0.712-0.245,0.819-0.461,0.576-1.18c-0.142-0.419-0.312-0.848-0.561-1.208
		c-1.05-1.516-2.638-2.228-4.319-2.754c-0.975-0.305-1.943-0.446-2.908-0.446c-1.324,0-2.639,0.265-3.945,0.732
		c-0.507,0.182-1.094,0.185-1.559,0.431c-0.903,0.479-1.77,1.039-2.609,1.626c-0.87,0.609-1.547,1.405-1.943,2.413
		c-0.402,1.023-0.486,2.093-0.296,3.155c0.188,1.056,0.975,1.688,1.868,2.185c0.783,0.435,1.365,0.959,0.952,1.974
		c-0.05,0.122-0.029,0.27-0.054,0.403c-0.178,1.01-0.358,2.02-0.539,3.029C55.844,26.828,55.901,26.866,55.959,26.903 M70.5,29.771
		c0.539,0,1.079-0.031,1.613-0.053c0.09-0.004,0.18-0.006,0.268-0.006c1.235,0,2.324,0.371,3.339,1.032
		c0.97,0.633,1.898,1.328,2.847,1.995c0.041-0.04,0.082-0.081,0.123-0.121c-0.014-0.091-0.021-0.187-0.045-0.275
		c-0.238-0.861-0.476-1.721-0.72-2.581c-0.138-0.484-0.081-0.857,0.448-1.092c0.273-0.123,0.509-0.351,0.735-0.559
		c0.498-0.458,0.962-0.955,1.474-1.399c1.07-0.933,1.622-2.036,1.55-3.513c-0.122-2.514-2.368-4.663-4.487-5.143
		c-0.508-0.115-1.045-0.117-1.547-0.248c-0.533-0.138-1.065-0.187-1.598-0.187c-0.983,0-1.965,0.164-2.938,0.227
		c-1.111,0.072-2.212,0.573-3.279,0.983c-0.785,0.302-1.571,0.681-2.248,1.175c-1.256,0.918-2.419,1.97-2.85,3.555
		c-0.323,1.185-0.121,2.253,0.677,3.268c0.994,1.267,2.412,1.801,3.777,2.426C68.556,29.672,69.525,29.771,70.5,29.771 M67.32,0
		L67.32,0C55.419,0,45.697,9.626,45.65,21.457c-0.023,5.827,2.207,11.294,6.281,15.392c4.076,4.102,9.536,6.368,15.371,6.379h0.045
		c11.838,0,21.497-9.692,21.531-21.606c0.016-5.734-2.219-11.148-6.295-15.247S73.105,0.014,67.372,0H67.32L67.32,0z M59.834,15.104
		c0.041-0.008,0.082-0.016,0.124-0.024c0.296-0.059,0.702-0.138,1.154-0.3c1.003-0.359,1.919-0.534,2.8-0.534
		c0.648,0,1.267,0.095,1.89,0.29c0.053,0.017,0.104,0.033,0.155,0.05c-0.01,0.004-0.02,0.008-0.029,0.013
		c-2.971,1.272-5.027,3.029-6.225,5.329c-0.223,0.01-0.46,0.034-0.71,0.08c-0.444-0.585-1.069-1.131-1.911-1.599
		c-0.088-0.049-0.157-0.09-0.211-0.125c-0.022-0.351,0.027-0.678,0.151-0.993c0.084-0.213,0.251-0.537,0.729-0.871
		C58.54,15.869,59.208,15.447,59.834,15.104L59.834,15.104z M66.445,24.582c0.002-0.021,0.008-0.063,0.025-0.128
		c0.133-0.486,0.59-0.979,1.576-1.702c0.352-0.257,0.843-0.508,1.458-0.744c0.173-0.066,0.347-0.135,0.521-0.205
		c0.664-0.262,1.35-0.533,1.756-0.56c0.437-0.028,0.846-0.07,1.244-0.111c0.535-0.056,1.041-0.108,1.475-0.108
		c0.299,0,0.541,0.025,0.74,0.077c0.49,0.127,0.926,0.18,1.275,0.222c0.139,0.017,0.311,0.038,0.376,0.052
		c0.777,0.176,1.798,1.146,1.839,1.987c0.015,0.283,0.021,0.426-0.387,0.781c-0.369,0.321-0.703,0.649-0.998,0.938
		c-0.18,0.175-0.358,0.353-0.543,0.522l-0.061,0.056c-0.014,0.012-0.026,0.024-0.039,0.036c-0.542,0.286-0.995,0.661-1.35,1.102
		c-0.959-0.327-1.952-0.492-2.973-0.492c-0.137,0-0.274,0.003-0.414,0.009l-0.306,0.013c-0.412,0.019-0.8,0.037-1.162,0.037
		c-0.683,0-1.128-0.064-1.444-0.209c-0.156-0.071-0.314-0.142-0.472-0.213c-1.04-0.466-1.694-0.774-2.044-1.219
		C66.483,24.653,66.457,24.605,66.445,24.582L66.445,24.582z"/>
</g>
<path fill="#FFFFFF" d="M78.566,32.738c-0.947-0.667-1.877-1.362-2.847-1.995c-1.087-0.709-2.261-1.083-3.606-1.025
	c-1.502,0.064-3.053,0.185-4.473-0.464c-1.365-0.625-2.783-1.16-3.777-2.426c-0.798-1.015-1-2.083-0.678-3.268
	c0.432-1.584,1.596-2.636,2.852-3.555c0.676-0.495,1.461-0.873,2.247-1.175c1.067-0.41,2.169-0.912,3.28-0.983
	c1.496-0.097,3.018-0.435,4.533-0.041c0.503,0.131,1.039,0.133,1.548,0.249c2.119,0.479,4.364,2.628,4.487,5.142
	c0.072,1.477-0.479,2.581-1.551,3.514c-0.51,0.445-0.975,0.941-1.473,1.399c-0.227,0.209-0.461,0.437-0.736,0.559
	c-0.529,0.235-0.585,0.608-0.447,1.093c0.244,0.859,0.481,1.719,0.719,2.581c0.025,0.089,0.031,0.184,0.046,0.275
	C78.648,32.658,78.607,32.699,78.566,32.738z"/>
<path fill="#FFFFFF" d="M55.787,26.791c0.18-1.01,0.36-2.019,0.539-3.029c0.023-0.134,0.003-0.282,0.053-0.404
	c0.412-1.014-0.169-1.538-0.951-1.974c-0.895-0.496-1.681-1.128-1.869-2.185c-0.19-1.062-0.107-2.132,0.296-3.155
	c0.396-1.007,1.073-1.804,1.944-2.413c0.839-0.587,1.705-1.147,2.609-1.626c0.464-0.246,1.051-0.25,1.558-0.431
	c2.259-0.808,4.542-1.011,6.854-0.287c1.681,0.527,3.271,1.238,4.319,2.754c0.249,0.36,0.419,0.789,0.561,1.208
	c0.243,0.719,0.136,0.935-0.576,1.18c-1.283,0.441-2.613,0.768-3.855,1.3c-2.495,1.068-4.506,2.653-5.17,5.484
	c-0.031,0.134-0.233,0.323-0.359,0.326c-0.385,0.009-0.785-0.009-1.152-0.112c-0.84-0.238-1.502-0.047-2.076,0.619
	c-0.711,0.824-1.465,1.611-2.197,2.416c-0.127,0.14-0.236,0.295-0.354,0.443C55.901,26.866,55.844,26.828,55.787,26.791z"/>
</svg>
