<?xml version="1.0" encoding="utf-8"?>
<!-- Generator: Adobe Illustrator 16.0.0, SVG Export Plug-In . SVG Version: 6.00 Build 0)  -->
<!DOCTYPE svg PUBLIC "-//W3C//DTD SVG 1.1//EN" "http://www.w3.org/Graphics/SVG/1.1/DTD/svg11.dtd">
<svg version="1.1" id="Layer_1" xmlns="http://www.w3.org/2000/svg" xmlns:xlink="http://www.w3.org/1999/xlink" x="0px" y="0px"
	 width="42.939px" height="42.939px" viewBox="45.939 0 42.939 42.939" enable-background="new 45.939 0 42.939 42.939"
	 xml:space="preserve">
<g>
	<path d="M67.429,41.188c-5.334-0.025-10.317-2.107-14.031-5.862c-3.714-3.753-5.739-8.757-5.706-14.09
		c0.067-10.778,8.951-19.547,19.802-19.547h0.104c5.236,0.027,10.164,2.111,13.88,5.866c3.715,3.755,5.743,8.707,5.713,13.941
		c-0.063,10.858-8.886,19.692-19.669,19.692H67.429z M67.991,23.371l0.733,0.049l0.465,0.57l0.108,0.13
		c0.118,0.139,0.267,0.313,0.407,0.525l0.179,0.262c0.261,0.386,0.532,0.787,0.775,1.247c0.122,0.229,0.249,0.459,0.376,0.69
		c0.452,0.813,0.917,1.654,1.228,2.616c0.234,0.728,0.31,1.479,0.228,2.241c0.896-0.343,1.668-0.975,2.336-1.908
		c0.622-0.871,0.927-1.955,0.987-3.516c0.01-0.231,0.007-0.464-0.005-0.697c-0.359,0.322-0.785,0.614-1.291,0.863l-2.707,1.332
		l0.281-3.003l0.015-0.196c0.011-0.161,0.024-0.344,0.065-0.552c0.051-0.253,0.105-0.506,0.162-0.761
		c0.084-0.385,0.165-0.75,0.223-1.105c0.402-2.449,0.041-4.601-1.104-6.58c-0.66-1.141-1.502-2.176-2.422-3.181
		c-0.034,0.532-0.091,1.071-0.172,1.62c-0.332,2.239-0.973,3.987-2.017,5.503c-0.261,0.378-0.55,0.689-0.831,0.99
		c-0.113,0.122-0.231,0.249-0.353,0.388l-2.79,3.172c0,0-0.166-4.239-0.167-4.248c-0.177,0.262-0.361,0.525-0.553,0.787
		c-1.57,2.157-2.179,4.373-1.862,6.771c0.173,1.317,0.824,2.302,2.05,3.1c0.319,0.208,0.657,0.399,1.004,0.579
		c0.002-0.669,0.146-1.359,0.439-2.048c0.497-1.17,1.083-2.289,1.651-3.37c0.236-0.453,0.475-0.905,0.705-1.361l0.5-0.99
		L67.991,23.371z"/>
	<path fill="#ACACAC" d="M67.493,3.377c0.031,0,0.063,0,0.096,0c9.892,0.051,17.971,8.218,17.913,18.108
		c-0.058,9.956-8.11,18.014-17.98,18.014c-0.028,0-0.057,0-0.086,0c-10.094-0.047-18.119-8.16-18.056-18.252
		C49.441,11.371,57.556,3.377,67.493,3.377 M64.391,19.781c-0.141-3.58-0.373-4.945-0.842-5.488
		c-0.284,0.759-0.512,1.622-0.918,2.391c-0.538,1.018-1.168,1.999-1.848,2.931c-1.741,2.395-2.564,5.002-2.171,7.984
		c0.252,1.91,1.265,3.293,2.804,4.295c0.945,0.615,1.993,1.09,3.036,1.527c0.558,0.235,1.205,0.255,1.979,0.405
		c-0.219-0.29-0.313-0.452-0.442-0.582c-1.038-1.044-1.19-2.312-0.654-3.575c0.673-1.584,1.531-3.089,2.309-4.629
		c0.079,0.005,0.158,0.009,0.236,0.014c0.142,0.173,0.298,0.338,0.422,0.524c0.298,0.447,0.615,0.887,0.866,1.361
		c0.528,0.997,1.147,1.973,1.489,3.035c0.39,1.21,0.107,2.44-0.565,3.563c0.104,0.043,0.169,0.081,0.241,0.098
		c0.111,0.027,0.227,0.055,0.34,0.056c0.025,0,0.05,0.001,0.075,0.001c2.332,0,4.126-1.067,5.452-2.921
		c0.935-1.306,1.239-2.837,1.302-4.433c0.065-1.685-0.338-3.289-0.748-4.896c-0.077-0.305-0.174-0.604-0.262-0.907
		c-0.067-0.016-0.134-0.03-0.2-0.045c-0.313,1.749-0.621,3.5-2.519,4.434c0.022-0.252,0.023-0.416,0.056-0.574
		c0.128-0.642,0.289-1.278,0.395-1.923c0.445-2.713,0.082-5.293-1.309-7.698c-1.062-1.836-2.498-3.365-3.965-4.869
		c-0.524-0.537-1.077-1.045-1.711-1.655c0,0.459-0.034,0.769,0.007,1.067c0.198,1.503,0.164,2.995-0.058,4.494
		c-0.254,1.72-0.742,3.35-1.736,4.792C65.169,18.972,64.796,19.32,64.391,19.781 M67.493,0L67.493,0
		c-11.776,0-21.416,9.521-21.49,21.226c-0.036,5.783,2.163,11.212,6.194,15.287c4.031,4.076,9.438,6.336,15.224,6.363l0.102,0
		c11.708,0,21.289-9.587,21.356-21.371c0.033-5.686-2.17-11.063-6.201-15.139C78.646,2.291,73.293,0.03,67.606,0H67.493L67.493,0z
		 M67.27,21.636c0.301-0.324,0.641-0.691,0.964-1.16c0.798-1.158,1.398-2.463,1.818-3.949c0.894,1.598,1.167,3.352,0.839,5.356
		c-0.051,0.31-0.127,0.653-0.206,1.016c-0.015,0.065-0.028,0.13-0.042,0.195c-0.022-0.026-0.042-0.049-0.061-0.071
		c-0.027-0.031-0.057-0.064-0.082-0.098l-0.93-1.142l-1.47-0.097l-0.185-0.011l-0.071-0.004L67.27,21.636L67.27,21.636z
		 M62.041,27.568l1.189-1.355c-0.318,0.63-0.632,1.277-0.925,1.95C62.176,27.962,62.095,27.764,62.041,27.568L62.041,27.568z"/>
</g>
<path fill="#FFFFFF" d="M67.643,25.042c-0.778,1.539-1.637,3.046-2.31,4.629c-0.536,1.263-0.383,2.53,0.654,3.575
	c0.129,0.129,0.225,0.292,0.442,0.582c-0.773-0.15-1.42-0.17-1.978-0.405c-1.044-0.438-2.093-0.913-3.036-1.527
	c-1.539-1.002-2.552-2.385-2.805-4.295c-0.393-2.982,0.431-5.589,2.172-7.984c0.679-0.933,1.309-1.913,1.848-2.932
	c0.406-0.768,0.633-1.631,0.918-2.39c0.468,0.543,0.701,1.908,0.842,5.488c0.404-0.46,0.777-0.809,1.061-1.221
	c0.994-1.442,1.482-3.072,1.736-4.792c0.222-1.499,0.256-2.993,0.058-4.494c-0.041-0.299-0.007-0.608-0.007-1.068
	c0.634,0.611,1.187,1.119,1.711,1.656c1.467,1.503,2.903,3.033,3.965,4.868c1.391,2.405,1.754,4.985,1.309,7.698
	c-0.106,0.646-0.268,1.281-0.395,1.924c-0.032,0.157-0.033,0.321-0.056,0.573c1.897-0.934,2.206-2.684,2.519-4.434
	c0.066,0.015,0.133,0.031,0.2,0.046c0.088,0.302,0.185,0.602,0.262,0.906c0.41,1.606,0.813,3.209,0.748,4.896
	c-0.063,1.596-0.368,3.126-1.302,4.432c-1.341,1.874-3.159,2.944-5.527,2.921c-0.113-0.002-0.229-0.029-0.34-0.056
	c-0.072-0.017-0.138-0.055-0.241-0.099c0.673-1.122,0.955-2.353,0.565-3.562c-0.342-1.062-0.961-2.039-1.489-3.036
	c-0.251-0.474-0.568-0.914-0.866-1.361c-0.124-0.186-0.28-0.351-0.422-0.523C67.801,25.05,67.722,25.046,67.643,25.042z"/>
</svg>
