<?xml version="1.0" encoding="utf-8"?>
<!-- Generator: Adobe Illustrator 16.0.0, SVG Export Plug-In . SVG Version: 6.00 Build 0)  -->
<!DOCTYPE svg PUBLIC "-//W3C//DTD SVG 1.1//EN" "http://www.w3.org/Graphics/SVG/1.1/DTD/svg11.dtd">
<svg version="1.1" id="Layer_3" xmlns="http://www.w3.org/2000/svg" xmlns:xlink="http://www.w3.org/1999/xlink" x="0px" y="0px"
	 width="42.926px" height="42.958px" viewBox="45.924 0 42.926 42.958" enable-background="new 45.924 0 42.926 42.958"
	 xml:space="preserve">
<g>
	<path d="M67.485,41.097c-5.32-0.014-10.299-2.078-14.013-5.819c-3.71-3.736-5.742-8.719-5.72-14.034
		C47.8,10.469,56.661,1.703,67.504,1.703h0.057c5.222,0.014,10.142,2.08,13.854,5.816c3.715,3.737,5.749,8.67,5.731,13.892
		c-0.035,10.854-8.833,19.686-19.613,19.686H67.485z"/>
	<path fill="#ACACAC" d="M67.504,3.405c0.017,0,0.033,0,0.051,0c9.855,0.028,17.921,8.144,17.89,18
		c-0.032,9.931-8.061,17.99-17.911,17.99c-0.017,0-0.029,0-0.045,0c-10.056-0.025-18.076-8.093-18.033-18.143
		C49.499,11.394,57.584,3.406,67.504,3.405 M61.241,20.347c-0.732-1.531-1.28-3.013-2.174-4.447
		c-0.154,0.265-0.246,0.387-0.304,0.522c-0.515,1.221-1.037,2.439-1.529,3.669c-0.39,0.975-0.486,1.066-1.542,1.07
		c-0.601,0.002-1.198,0.003-1.803,0.003c-0.865,0-1.74-0.001-2.645-0.001c0,0.435,0.006,0.812-0.003,1.188
		c-0.008,0.435,0.14,0.671,0.623,0.671c0.004,0,0.009,0,0.015,0c0.933-0.009,1.868-0.013,2.802-0.013
		c0.949,0,1.898,0.004,2.848,0.012c0.007,0,0.012,0,0.017,0c0.372,0,0.574-0.112,0.698-0.49c0.259-0.793,0.573-1.569,0.907-2.468
		c0.779,1.834,1.51,3.545,2.236,5.258c0.084,0.001,0.169,0.002,0.254,0.005c0.967-2.983,1.933-5.965,2.896-8.947
		c1.373,6.167,2.385,12.373,3.788,18.498c0.077,0.002,0.158,0.003,0.236,0.004c1.022-4.914,2.046-9.829,3.104-14.91
		c0.694,2.138,1.335,4.107,1.977,6.076c0.07,0,0.141-0.001,0.212-0.001c0.599-1.758,1.196-3.518,1.793-5.278
		c0.423,0.698,0.693,1.41,1.004,2.104c0.082,0.179,0.284,0.429,0.436,0.432c1.103,0.015,2.206,0.024,3.31,0.024
		c0.972,0,1.943-0.007,2.917-0.025c0.257-0.005,0.677-0.28,0.726-0.498c0.112-0.483,0.037-1.009,0.037-1.526
		c-0.994,0-1.961-0.003-2.917-0.003c-0.829,0-1.649,0.002-2.47,0.013c-0.012,0-0.025,0-0.037,0c-0.389,0-0.652-0.079-0.83-0.472
		c-0.584-1.293-1.195-2.575-1.797-3.861c-0.102-0.213-0.221-0.417-0.393-0.737c-0.604,1.492-1.154,2.854-1.707,4.217
		c-0.073-0.006-0.15-0.012-0.226-0.019c-0.733-2.302-1.468-4.605-2.2-6.908c-0.058,0.003-0.118,0.006-0.176,0.008
		c-0.938,4.061-1.876,8.121-2.814,12.182c-0.04-0.002-0.08-0.003-0.123-0.005c-1.195-5.899-2.393-11.797-3.59-17.697
		C63.649,12.106,62.655,16.226,61.241,20.347 M67.504,0L67.504,0C55.725,0.001,46.1,9.528,46.051,21.236
		c-0.025,5.769,2.182,11.182,6.213,15.242c4.035,4.063,9.44,6.308,15.217,6.322h0.053c11.715,0,21.278-9.593,21.316-21.383
		c0.019-5.676-2.192-11.038-6.228-15.098C78.588,2.26,73.241,0.017,67.565,0H67.504L67.504,0z"/>
</g>
<path fill="#FFFFFF" d="M71.582,13.327c0.752,2.362,1.505,4.724,2.258,7.086c0.077,0.006,0.154,0.013,0.231,0.019
	c0.564-1.397,1.13-2.794,1.75-4.325c0.175,0.328,0.301,0.537,0.402,0.756c0.619,1.318,1.246,2.633,1.845,3.96
	c0.188,0.415,0.47,0.489,0.889,0.484c1.813-0.023,3.622-0.01,5.524-0.01c0,0.53,0.078,1.069-0.035,1.565
	c-0.051,0.223-0.482,0.505-0.746,0.51c-2.129,0.041-4.259,0.031-6.387,0.001c-0.154-0.001-0.364-0.258-0.445-0.442
	c-0.318-0.712-0.598-1.442-1.029-2.159c-0.614,1.805-1.229,3.61-1.841,5.415c-0.073,0-0.145,0-0.218,0
	c-0.656-2.018-1.314-4.04-2.027-6.232c-1.084,5.211-2.135,10.253-3.184,15.294c-0.081-0.001-0.162-0.002-0.243-0.004
	c-1.439-6.283-2.478-12.649-3.886-18.974c-0.99,3.058-1.98,6.117-2.971,9.175c-0.087-0.001-0.174-0.002-0.262-0.003
	c-0.745-1.756-1.492-3.513-2.292-5.393c-0.345,0.921-0.665,1.718-0.931,2.532c-0.131,0.393-0.342,0.506-0.733,0.502
	c-1.933-0.016-3.865-0.017-5.796,0c-0.508,0.005-0.661-0.238-0.653-0.687c0.009-0.387,0.003-0.773,0.003-1.22
	c1.574,0,3.068,0.004,4.562-0.001c1.083-0.004,1.183-0.097,1.583-1.097c0.504-1.262,1.041-2.512,1.568-3.764
	c0.059-0.14,0.152-0.264,0.314-0.537c0.913,1.472,1.476,2.991,2.227,4.562c1.45-4.227,2.471-8.453,3.649-12.668
	c1.227,6.051,2.455,12.102,3.681,18.153c0.045,0.001,0.085,0.003,0.127,0.005c0.962-4.165,1.925-8.331,2.887-12.496
	C71.462,13.332,71.522,13.33,71.582,13.327z"/>
</svg>
