<?xml version="1.0" encoding="utf-8"?>
<!-- Generator: Adobe Illustrator 16.0.0, SVG Export Plug-In . SVG Version: 6.00 Build 0)  -->
<!DOCTYPE svg PUBLIC "-//W3C//DTD SVG 1.1//EN" "http://www.w3.org/Graphics/SVG/1.1/DTD/svg11.dtd">
<svg version="1.1" id="Layer_1" xmlns="http://www.w3.org/2000/svg" xmlns:xlink="http://www.w3.org/1999/xlink" x="0px" y="0px"
	 width="43.314px" height="43.292px" viewBox="45.648 0 43.314 43.292" enable-background="new 45.648 0 43.314 43.292"
	 xml:space="preserve">
<g>
	<path d="M67.147,41.577c-5.274,0-10.254-2.105-14.02-5.93c-3.798-3.856-5.844-8.944-5.762-14.325
		c0.166-10.817,9.121-19.618,19.963-19.618c0.124,0,0.248,0.001,0.373,0.003c10.896,0.201,19.67,9.263,19.556,20.202
		c-0.112,10.845-9.063,19.667-19.954,19.667H67.147z M56.363,24.379c0.613,1.288,1.353,2.423,2.044,3.416
		c0.888,1.272,2.209,1.463,2.918,1.463c0.514,0,1.031-0.092,1.539-0.271c0.193-0.068,0.449-0.231,0.72-0.403
		c0.077-0.05,0.158-0.101,0.242-0.153c-0.094-0.507-0.183-0.988-0.32-1.404c-0.04-0.121-0.078-0.243-0.117-0.364
		c-0.206-0.656-0.35-1.066-0.597-1.241c-0.949-0.67-1.626-0.943-2.336-0.943l-0.385,0.002c-0.707,0-1.41-0.027-2.09-0.052
		c-0.469-0.018-0.938-0.036-1.406-0.044C56.505,24.382,56.435,24.38,56.363,24.379z M71.774,25.353
		c0.853,0.079,1.664,0.146,2.465,0.146h0.123c0.616-0.005,1.105-0.196,1.496-0.585c0.617-0.614,0.927-1.515,1.215-2.462
		c0.363-1.197,0.674-2.455,0.974-3.677c-0.837,0.237-1.641,0.477-2.426,0.765c-0.817,0.3-1.731,0.676-2.31,1.186
		C72.071,21.823,71.591,23.239,71.774,25.353z M64.413,9.816c-0.777,1.238-1.579,2.517-2.334,3.784
		c-0.273,0.458-0.572,1.222-0.012,2.554c0.325,0.772,1.023,1.409,1.835,2.102c0.67,0.572,0.905,0.583,0.907,0.583
		s0.222-0.025,0.809-0.593c0.12-0.116,0.235-0.237,0.346-0.362c0.553-0.629,0.98-1.154,1.057-1.707
		c0.232-1.694-0.063-2.951-0.957-4.073C65.473,11.363,64.932,10.586,64.413,9.816z"/>
	<path fill="#ADADAD" d="M67.329,3.407c0.113,0,0.227,0.001,0.341,0.003c9.804,0.181,17.989,8.35,17.885,18.481
		c-0.103,9.875-8.247,17.981-18.251,17.981c-0.001,0-0.002,0-0.002,0c-0.051,0-0.103,0-0.153,0c-9.936,0-18.235-8.329-18.079-18.525
		C49.22,11.612,57.263,3.408,67.329,3.407 M64.81,20.542c0.635,0,1.252-0.356,1.992-1.073c0.154-0.148,0.302-0.303,0.442-0.464
		c0.67-0.763,1.319-1.547,1.464-2.597c0.27-1.957-0.021-3.749-1.313-5.368C66.3,9.669,65.38,8.159,64.346,6.655
		c-0.077,0.146-0.134,0.268-0.205,0.381c-1.177,1.896-2.383,3.774-3.525,5.69c-0.784,1.316-0.693,2.72-0.118,4.087
		c0.479,1.138,1.379,1.95,2.299,2.736C63.568,20.21,64.197,20.542,64.81,20.542 M80.274,16.453
		c-0.287,0.044-0.459,0.052-0.619,0.099c-1.544,0.451-3.113,0.837-4.621,1.389c-1.005,0.369-2.066,0.815-2.852,1.51
		c-2.171,1.921-2.4,4.484-1.963,7.172c0.021,0.134,0.248,0.322,0.393,0.334c1.207,0.106,2.418,0.247,3.627,0.247
		c0.047,0,0.092,0,0.139-0.001c0.995-0.009,1.928-0.33,2.683-1.082c0.894-0.89,1.296-2.031,1.643-3.173
		c0.507-1.67,0.896-3.376,1.319-5.07C80.134,17.437,80.183,16.98,80.274,16.453 M72.834,34.705c0.217,0,0.427-0.089,0.578-0.295
		c0.546-0.746,0.988-1.568,1.509-2.413c-1.93-0.517-3.424-1.457-4.628-3.02c-1.503-1.949-2.725-4.007-3.484-6.342
		c-0.089-0.27-0.155-0.555-0.297-0.796c-0.069-0.12-0.312-0.266-0.401-0.266c-0.01,0-0.018,0.002-0.023,0.006
		c-0.156,0.115-0.335,0.328-0.334,0.502c0.004,1.451,0.289,2.838,0.835,4.201c0.819,2.045,1.562,4.124,3.088,5.774
		c0.786,0.851,1.651,1.634,2.524,2.397C72.382,34.612,72.611,34.705,72.834,34.705 M61.325,30.961c0.705,0,1.42-0.125,2.107-0.369
		c0.658-0.233,1.219-0.729,1.857-1.032c0.375-0.177,0.413-0.412,0.346-0.738c-0.162-0.78-0.264-1.58-0.513-2.332
		c-0.295-0.892-0.508-1.867-1.349-2.461c-0.995-0.702-2.041-1.256-3.318-1.256c-0.02,0-0.04,0-0.061,0.001
		c-0.108,0.001-0.216,0.002-0.324,0.002c-1.154,0-2.309-0.075-3.463-0.097c-0.342-0.007-0.682-0.009-1.026-0.009
		c-0.551,0-1.112,0.005-1.698,0.005c0.686,2.32,1.833,4.237,3.125,6.093C58.05,30.261,59.658,30.961,61.325,30.961 M67.33,0L67.33,0
		C55.562,0,45.843,9.553,45.663,21.295c-0.09,5.84,2.129,11.362,6.25,15.545c4.089,4.152,9.5,6.439,15.235,6.439l0.152-0.001l0,0
		c11.823,0,21.538-9.578,21.66-21.352c0.124-11.871-9.399-21.706-21.229-21.924C67.599,0.001,67.464,0,67.33,0L67.33,0z
		 M64.724,16.713c-0.504-0.44-0.934-0.86-1.085-1.22c-0.292-0.693-0.165-0.907-0.096-1.022c0.314-0.527,0.638-1.06,0.965-1.59
		c0.073,0.095,0.148,0.189,0.224,0.284c0.434,0.542,0.805,1.252,0.604,2.751C65.261,16.095,64.9,16.51,64.724,16.713L64.724,16.713z
		 M73.497,23.776c0.137-0.91,0.52-1.399,0.943-1.773c0.264-0.233,0.757-0.464,1.177-0.636c-0.057,0.198-0.114,0.395-0.175,0.591
		c-0.259,0.854-0.481,1.446-0.785,1.748c-0.044,0.044-0.088,0.088-0.309,0.09l-0.109,0.001
		C73.997,23.796,73.749,23.789,73.497,23.776L73.497,23.776z M61.325,27.554c-0.67,0-1.181-0.247-1.52-0.733
		c-0.148-0.211-0.295-0.426-0.441-0.645c0.233,0.004,0.47,0.007,0.707,0.007c0.123,0,0.247,0,0.37-0.002c0,0,0,0,0.001,0
		c0.218,0,0.516,0.062,1.154,0.485c0.052,0.142,0.116,0.346,0.168,0.507c0.033,0.108,0.068,0.217,0.104,0.324
		C61.685,27.535,61.501,27.554,61.325,27.554L61.325,27.554z"/>
</g>
<g>
	<path fill="#FFFFFF" d="M64.347,6.655c1.034,1.503,1.954,3.014,3.049,4.385c1.291,1.619,1.582,3.411,1.313,5.368
		c-0.145,1.05-0.793,1.834-1.464,2.597c-0.141,0.161-0.288,0.315-0.441,0.464c-1.456,1.409-2.436,1.423-4.007,0.082
		c-0.92-0.786-1.818-1.598-2.298-2.736c-0.575-1.368-0.667-2.771,0.118-4.087c1.143-1.917,2.348-3.795,3.525-5.69
		C64.212,6.923,64.269,6.801,64.347,6.655z"/>
</g>
<g>
	<path fill="#FFFFFF" d="M80.274,16.453c-0.092,0.527-0.141,0.984-0.252,1.425c-0.424,1.694-0.813,3.4-1.32,5.07
		c-0.347,1.142-0.748,2.282-1.643,3.173c-0.754,0.752-1.688,1.073-2.683,1.082c-1.255,0.011-2.513-0.136-3.766-0.246
		c-0.144-0.012-0.37-0.201-0.392-0.334c-0.438-2.688-0.209-5.25,1.963-7.172c0.785-0.695,1.846-1.142,2.852-1.51
		c1.508-0.552,3.076-0.938,4.621-1.389C79.815,16.504,79.987,16.497,80.274,16.453z"/>
</g>
<g>
	<path fill="#FFFFFF" d="M53.884,22.676c0.953,0,1.838-0.013,2.725,0.003c1.263,0.024,2.525,0.112,3.788,0.095
		c1.305-0.018,2.367,0.541,3.378,1.255c0.842,0.595,1.054,1.57,1.35,2.461c0.248,0.751,0.35,1.552,0.512,2.332
		c0.067,0.327,0.029,0.561-0.345,0.738c-0.64,0.303-1.2,0.8-1.858,1.032c-2.311,0.819-4.941,0.301-6.422-1.824
		C55.717,26.914,54.569,24.996,53.884,22.676z"/>
</g>
<g>
	<path fill="#FFFFFF" d="M74.921,31.997c-0.52,0.845-0.963,1.667-1.509,2.413c-0.306,0.417-0.854,0.356-1.212,0.043
		c-0.873-0.762-1.737-1.546-2.524-2.396c-1.526-1.65-2.269-3.729-3.088-5.774c-0.546-1.362-0.831-2.75-0.835-4.201
		c-0.001-0.174,0.178-0.387,0.334-0.501c0.055-0.041,0.347,0.126,0.425,0.259c0.142,0.241,0.208,0.527,0.297,0.795
		c0.76,2.336,1.981,4.393,3.484,6.342C71.497,30.54,72.991,31.479,74.921,31.997z"/>
</g>
</svg>
