<?xml version="1.0" encoding="utf-8"?>
<!-- Generator: Adobe Illustrator 16.0.0, SVG Export Plug-In . SVG Version: 6.00 Build 0)  -->
<!DOCTYPE svg PUBLIC "-//W3C//DTD SVG 1.1//EN" "http://www.w3.org/Graphics/SVG/1.1/DTD/svg11.dtd">
<svg version="1.1" id="Layer_1" xmlns="http://www.w3.org/2000/svg" xmlns:xlink="http://www.w3.org/1999/xlink" x="0px" y="0px"
	 width="43.272px" height="43.274px" viewBox="45.606 0 43.272 43.274" enable-background="new 45.606 0 43.272 43.274"
	 xml:space="preserve">
<g>
	<path d="M67.353,41.514c-10.991,0-19.957-8.935-19.986-19.917c-0.015-5.302,2.053-10.293,5.823-14.053
		c3.766-3.757,8.777-5.832,14.109-5.842c10.964,0,19.865,8.897,19.878,19.833c0.013,10.997-8.864,19.959-19.788,19.979H67.353z
		 M67.332,11.586c-0.871,1.542-1.77,3.138-2.7,4.692l-0.175,0.293c-1.212,2.024-2.357,3.936-3.063,6.055
		c-0.497,1.491-0.588,2.855-0.276,4.169c0.693,2.927,3.387,5.05,6.404,5.051h0.001c1.277,0,2.491-0.399,3.513-1.153
		c2.23-1.649,3.126-3.812,2.737-6.611c-0.257-1.862-1.167-3.594-2.078-5.209c-0.89-1.577-1.827-3.171-2.733-4.711
		c-0.444-0.755-0.889-1.51-1.33-2.267c-0.079-0.138-0.159-0.275-0.239-0.413C67.371,11.517,67.352,11.551,67.332,11.586z"/>
	<path fill="#ACACAC" d="M67.334,3.404c9.95,0,18.129,8.171,18.141,18.133c0.012,10.06-8.102,18.258-18.088,18.276
		c-0.012,0-0.023,0-0.034,0c-10.136,0-18.257-8.089-18.284-18.221C49.04,11.575,57.213,3.422,67.302,3.404
		C67.313,3.404,67.323,3.404,67.334,3.404 M67.521,33.548c1.568,0,3.146-0.467,4.524-1.486c2.733-2.02,3.884-4.813,3.413-8.214
		c-0.293-2.117-1.253-3.986-2.282-5.811c-1.327-2.352-2.716-4.667-4.075-7C68.547,10.086,68,9.131,67.4,8.091
		c-0.16,0.246-0.262,0.386-0.348,0.537c-1.291,2.26-2.545,4.544-3.881,6.777c-1.286,2.151-2.592,4.279-3.393,6.683
		c-0.563,1.689-0.729,3.369-0.318,5.101C60.385,31.085,63.924,33.548,67.521,33.548 M67.335,0L67.335,0h-0.038
		c-5.787,0.011-11.223,2.262-15.31,6.339c-4.093,4.083-6.339,9.503-6.323,15.262c0.016,5.808,2.272,11.246,6.354,15.311
		c4.079,4.065,9.525,6.304,15.335,6.304h0.038c11.862-0.022,21.501-9.748,21.487-21.683C88.865,9.66,79.201,0,67.335,0L67.335,0z
		 M67.521,30.145c-1.919,0-4.166-1.286-4.749-3.741c-0.239-1.011-0.165-2.04,0.234-3.238c0.648-1.943,1.747-3.778,2.909-5.72
		l0.176-0.294c0.449-0.75,0.89-1.507,1.322-2.262c0.027,0.044,0.053,0.089,0.079,0.134c0.902,1.535,1.836,3.122,2.719,4.686
		c0.83,1.472,1.658,3.04,1.874,4.604c0.304,2.188-0.333,3.732-2.063,5.011C69.287,29.869,68.446,30.145,67.521,30.145L67.521,30.145
		z"/>
</g>
<path fill="#FFFFFF" d="M67.399,8.091c0.601,1.04,1.147,1.995,1.702,2.947c1.358,2.333,2.748,4.648,4.074,7
	c1.029,1.825,1.99,3.695,2.282,5.812c0.472,3.4-0.679,6.193-3.412,8.213c-4.544,3.359-11.259,0.721-12.585-4.874
	c-0.411-1.732-0.246-3.412,0.318-5.1c0.801-2.404,2.105-4.532,3.393-6.683c1.336-2.234,2.59-4.518,3.88-6.777
	C67.139,8.478,67.24,8.336,67.399,8.091z"/>
</svg>
