<?xml version="1.0" standalone="no"?>
<!DOCTYPE svg PUBLIC "-//W3C//DTD SVG 20010904//EN"
 "http://www.w3.org/TR/2001/REC-SVG-20010904/DTD/svg10.dtd">
<svg version="1.0" xmlns="http://www.w3.org/2000/svg"
 width="500.000000pt" height="500.000000pt" viewBox="0 0 500.000000 500.000000"
 preserveAspectRatio="xMidYMid meet">
<metadata>
Created by potrace 1.11, written by Peter Selinger 2001-2013
</metadata>
<g transform="translate(0.000000,500.000000) scale(0.100000,-0.100000)"
fill="#000000" stroke="none">
<path d="M2436 4838 c16 -26 32 -142 28 -216 -5 -128 -26 -217 -75 -313 -27
-54 -101 -154 -140 -189 -9 -8 -56 -60 -104 -115 -48 -55 -101 -113 -117 -130
-88 -92 -208 -278 -208 -323 0 -6 -5 -12 -10 -12 -13 0 -4 109 16 205 9 39 17
78 19 89 11 51 39 134 57 169 l20 39 -47 -33 c-25 -18 -78 -65 -118 -104 -202
-197 -315 -389 -357 -606 -5 -27 -20 -58 -37 -76 -15 -16 -39 -53 -53 -81 -14
-29 -28 -52 -32 -52 -13 0 -22 53 -22 137 -1 46 -4 83 -8 83 -11 0 -81 -183
-79 -207 0 -2 -5 -17 -10 -35 -6 -18 -12 -75 -14 -125 -3 -51 -7 -103 -10
-115 -3 -13 -7 -40 -9 -61 -2 -21 -6 -40 -9 -43 -3 -3 -35 3 -72 13 l-66 18
-85 -45 c-47 -25 -87 -48 -90 -52 -3 -4 66 -107 153 -228 87 -122 168 -238
180 -259 12 -20 39 -93 59 -162 20 -68 39 -131 42 -139 3 -8 6 -17 7 -20 1 -3
11 -39 24 -80 12 -41 45 -144 72 -228 l49 -153 -72 -142 c-76 -149 -89 -198
-57 -229 21 -21 102 -61 159 -78 25 -7 52 -20 62 -28 14 -11 29 -17 58 -21 7
-1 15 -24 81 -231 28 -91 56 -170 61 -177 5 -6 21 -14 36 -18 15 -4 41 -13 57
-20 17 -8 131 -57 255 -110 124 -54 297 -128 385 -166 l159 -69 141 94 c77 52
187 127 245 166 58 40 139 95 180 124 41 28 77 53 80 56 3 3 28 20 57 38 61
39 70 49 76 82 3 14 12 54 20 90 47 193 69 288 72 310 2 14 9 41 15 60 6 19
13 46 16 60 12 69 47 229 54 255 5 17 11 41 14 55 3 14 32 147 66 295 34 149
64 281 66 294 4 21 12 55 48 203 3 9 51 88 109 175 140 214 157 240 151 245
-6 7 -21 110 -23 166 -1 25 -16 25 -75 -4 -30 -14 -54 -19 -43 -8 3 3 -1 23
-8 45 -8 22 -13 43 -12 47 1 4 -29 12 -67 18 -63 11 -85 23 -86 49 0 27 -110
198 -183 287 -45 55 -95 116 -110 136 -16 20 -31 35 -34 32 -4 -3 -7 -36 -9
-73 -4 -100 -13 -179 -29 -255 -18 -86 -25 -104 -39 -99 -7 3 -10 25 -7 63 9
124 3 291 -15 394 -37 222 -189 612 -295 761 -10 15 -19 30 -19 34 0 8 -91
139 -174 250 -67 90 -169 193 -257 260 -61 46 -76 54 -63 33z m-992 -3620 c15
-51 31 -102 35 -113 5 -11 17 -47 26 -80 10 -33 20 -64 23 -70 3 -5 -1 -4 -9
3 -7 6 -23 12 -35 12 -12 0 -25 7 -28 16 -3 8 -10 13 -15 10 -4 -3 -27 4 -51
15 -23 11 -49 18 -58 14 -9 -3 -13 -3 -9 1 4 4 3 12 -3 19 -25 30 -18 80 21
150 21 39 43 80 49 93 5 12 13 22 18 22 5 0 21 -42 36 -92z"/>
</g>
</svg>
